<svg xmlns="http://www.w3.org/2000/svg" viewBox="0 0 64 64" role="img" aria-label="MQ favicon">
  <rect width="64" height="64" rx="12" fill="#121e28"/>
  <path d="M8 44V20h7.5l6.5 10.5L28.5 20H36v24h-6.7V31.3l-5.2 8h-4.2l-5.2-8V44H8Z" fill="#ffffff"/>
  <path d="M46.5 44.7c-2.3 0-4.3-.5-6-1.6a10.5 10.5 0 0 1-4.1-4.4A14 14 0 0 1 35 32.2c0-2.5.5-4.7 1.5-6.5a10.5 10.5 0 0 1 4.1-4.4c1.8-1 3.8-1.6 6.1-1.6 2.4 0 4.4.5 6.2 1.6a10.5 10.5 0 0 1 4.1 4.4c1 1.9 1.5 4 1.5 6.5 0 1.7-.2 3.2-.7 4.6a11.3 11.3 0 0 1-2 3.6l3.4 3.6-4.1 3.9-3.7-3.9c-1.5.5-3.1.7-4.9.7Zm.2-5.8c1.5 0 2.7-.6 3.6-1.8.9-1.2 1.4-2.8 1.4-4.9s-.5-3.7-1.4-4.9c-.9-1.2-2.1-1.8-3.6-1.8s-2.7.6-3.6 1.8c-.9 1.2-1.3 2.8-1.3 4.9s.4 3.7 1.3 4.9c.9 1.2 2.1 1.8 3.6 1.8Z" fill="#ff715a"/>
</svg>
